<svg width="101" height="155" viewBox="0 0 101 155" fill="none" xmlns="http://www.w3.org/2000/svg">
<path d="M50.5 27.5C78.1142 27.5 100.5 49.8858 100.5 77.5C100.5 105.114 78.1142 127.5 50.5 127.5C22.8858 127.5 0.5 105.114 0.5 77.5C0.5 49.8858 22.8858 27.5 50.5 27.5ZM69 69.6777C67.6193 69.6777 66.5 70.797 66.5 72.1777C66.5 81.0452 59.3308 88.2236 50.5 88.2236C41.6692 88.2236 34.5 81.0452 34.5 72.1777C34.5 70.797 33.3807 69.6777 32 69.6777C30.6193 69.6777 29.5 70.797 29.5 72.1777C29.5 82.948 37.5762 91.8343 48 93.0732V108.178C48 109.558 49.1193 110.678 50.5 110.678C51.8807 110.678 53 109.558 53 108.178V93.0732C63.4238 91.8343 71.5 82.948 71.5 72.1777C71.5 70.797 70.3807 69.6777 69 69.6777ZM50.5 47.1768C43.7194 47.1768 38.2227 52.6745 38.2227 59.4551V72.1045C38.2229 78.8849 43.7196 84.3818 50.5 84.3818C57.2804 84.3818 62.7771 78.8849 62.7773 72.1045V59.4551C62.7773 52.6745 57.2806 47.1768 50.5 47.1768Z" fill="url(#paint0_linear_247_22)"/>
<defs>
<linearGradient id="paint0_linear_247_22" x1="88.6051" y1="12" x2="50.5" y2="78" gradientUnits="userSpaceOnUse">
<stop stop-color="#FFADAD"/>
<stop offset="1" stop-color="#FF4747"/>
</linearGradient>
</defs>
</svg>
