<svg width="155" height="155" viewBox="0 0 155 155" fill="none" xmlns="http://www.w3.org/2000/svg">
<path d="M97.3553 35.3553C113.702 51.7018 116.363 76.5503 105.34 95.6659L133.064 123.39C137.945 128.272 137.945 136.186 133.064 141.068C128.183 145.949 120.268 145.949 115.387 141.068L87.8446 113.526C68.6161 125.153 43.2459 122.667 26.6447 106.066C7.11845 86.5398 7.11846 54.8815 26.6447 35.3553C46.1709 15.8292 77.8292 15.8292 97.3553 35.3553ZM88.5165 43.4871C73.8718 28.8424 50.1282 28.8424 35.4835 43.4871C20.8389 58.1317 20.8389 81.8754 35.4835 96.5201C50.1281 111.165 73.8719 111.165 88.5165 96.5201C103.161 81.8754 103.161 58.1317 88.5165 43.4871Z" fill="url(#paint0_linear_228_459)"/>
<defs>
<linearGradient id="paint0_linear_228_459" x1="107.213" y1="40" x2="79.5" y2="88" gradientUnits="userSpaceOnUse">
<stop stop-color="#546EF2"/>
<stop offset="1" stop-color="#2B3D99"/>
</linearGradient>
</defs>
</svg>
