<svg width="101" height="155" viewBox="0 0 101 155" fill="none" xmlns="http://www.w3.org/2000/svg">
<path d="M50.5 27.5C78.1142 27.5 100.5 49.8858 100.5 77.5C100.5 105.114 78.1142 127.5 50.5 127.5C22.8858 127.5 0.5 105.114 0.5 77.5C0.5 49.8858 22.8858 27.5 50.5 27.5ZM69 90.5C67.6193 90.5 66.5 91.6193 66.5 93V100.678H34.5V93C34.5 91.6193 33.3807 90.5 32 90.5C30.6193 90.5 29.5 91.6193 29.5 93V103.178C29.5 104.558 30.6193 105.678 32 105.678H69C70.3807 105.678 71.5 104.558 71.5 103.178V93C71.5 91.6193 70.3807 90.5 69 90.5ZM52.2676 50.2324C51.3523 49.3171 49.9038 49.2596 48.9219 50.0605L48.7324 50.2324L34.8574 64.1074C33.8811 65.0837 33.8811 66.6663 34.8574 67.6426C35.8337 68.6189 37.4163 68.6189 38.3926 67.6426L48 58.0352V93C48 94.3807 49.1193 95.5 50.5 95.5C51.8807 95.5 53 94.3807 53 93V58.0352L62.6074 67.6426C63.5837 68.6189 65.1663 68.6189 66.1426 67.6426C67.1189 66.6663 67.1189 65.0837 66.1426 64.1074L52.2676 50.2324Z" fill="url(#paint0_linear_247_14)"/>
<defs>
<linearGradient id="paint0_linear_247_14" x1="88.6051" y1="12" x2="50.5" y2="78" gradientUnits="userSpaceOnUse">
<stop stop-color="#FFADAD"/>
<stop offset="1" stop-color="#FF4747"/>
</linearGradient>
</defs>
</svg>
